<svg width="50" height="11" viewBox="0 0 50 11" fill="none" xmlns="http://www.w3.org/2000/svg">
<rect opacity="0.16" x="30" y="2" width="20" height="8" rx="4" fill="#622FCD"/>
<path opacity="0.11" d="M4.70792 10.4327C6.75575 10.4327 8.41585 8.76885 8.41585 6.71636C8.41585 4.66387 6.75575 3 4.70792 3C2.66009 3 1 4.66387 1 6.71636C1 8.76885 2.66009 10.4327 4.70792 10.4327Z" stroke="#622FCD" stroke-width="0.3" stroke-miterlimit="10"/>
<path d="M4.12887 2.19927C3.78535 1.60881 3.60315 0.938048 3.60062 0.254545C3.61331 0.191801 3.64417 0.134197 3.68934 0.0889272C3.73451 0.0436569 3.79198 0.012727 3.85458 0H5.88632C5.88632 0 6.24188 -1.51721e-08 6.19108 0.224C6.14502 0.902681 5.99068 1.56957 5.73394 2.19927H4.12887Z" fill="#300864"/>
<path d="M3.7327 3.49236C3.7327 3.49236 3.88508 2.71854 4.23047 2.74909H5.47999C5.47999 2.74909 5.84571 2.58618 6.00824 3.25818L7.02411 6.48582L7.2984 7.42254C7.40441 7.77099 7.40441 8.14319 7.2984 8.49163L5.57142 10.1105C5.51565 10.1798 5.44633 10.2368 5.36774 10.2781C5.28914 10.3195 5.20293 10.3442 5.11442 10.3509C5.0259 10.3576 4.93697 10.346 4.85308 10.317C4.7692 10.2879 4.69214 10.2419 4.62666 10.1818L2.7473 8.66472C2.56917 8.57318 2.43415 8.41505 2.37142 8.22452C2.30868 8.03399 2.32329 7.82637 2.41207 7.64654L3.7327 3.49236Z" fill="#300864"/>
<path opacity="0.33" d="M5.50031 7.29019C5.673 7.49383 5.85586 7.71783 6.02856 7.94183C6.20125 8.16583 6.4349 8.48146 6.61776 8.74619C6.64248 8.82182 6.64198 8.90345 6.61632 8.97876C6.59066 9.05407 6.54125 9.11897 6.47554 9.16365C6.42805 9.17393 6.37896 9.17435 6.3313 9.16487C6.28364 9.1554 6.23843 9.13624 6.19844 9.10857C6.15846 9.0809 6.12456 9.04531 6.09884 9.004C6.07311 8.96269 6.05611 8.91653 6.04887 8.86837L5.94729 8.61383C5.77115 8.1823 5.62187 7.74024 5.50031 7.29019V7.29019Z" fill="white"/>
<path d="M13.835 1.797H15.746L18.56 9H16.901L16.3865 7.6245H13.1105L12.596 9H11.021L13.835 1.797ZM15.9035 6.354L15.221 4.527C15.137 4.303 14.9865 3.8305 14.7695 3.1095H14.717C14.5 3.8305 14.3495 4.303 14.2655 4.527L13.583 6.354H15.9035ZM17.6525 3.477H19.154L20.015 5.85C20.113 6.116 20.267 6.669 20.477 7.509H20.5295C20.7255 6.718 20.8795 6.165 20.9915 5.85L21.842 3.477H23.3015L21.233 9H19.7105L17.6525 3.477ZM25.713 9.126C24.943 9.126 24.3375 8.9685 23.8965 8.6535C23.4625 8.3315 23.2455 7.9045 23.2455 7.3725L23.256 7.2465H24.6525V7.32C24.6595 7.565 24.768 7.7435 24.978 7.8555C25.195 7.9605 25.4575 8.013 25.7655 8.013C26.0525 8.013 26.2975 7.9745 26.5005 7.8975C26.7035 7.8205 26.805 7.6945 26.805 7.5195C26.805 7.3235 26.7 7.1765 26.49 7.0785C26.287 6.9805 25.965 6.8825 25.524 6.7845C25.069 6.6795 24.698 6.5745 24.411 6.4695C24.124 6.3575 23.8755 6.186 23.6655 5.955C23.4555 5.724 23.3505 5.416 23.3505 5.031C23.3505 4.492 23.5745 4.079 24.0225 3.792C24.4775 3.498 25.062 3.351 25.776 3.351C26.441 3.351 26.9905 3.4875 27.4245 3.7605C27.8585 4.0265 28.0755 4.3905 28.0755 4.8525L28.065 5.094H26.6685V5.031C26.6685 4.849 26.581 4.709 26.406 4.611C26.238 4.513 26.0105 4.464 25.7235 4.464C25.4365 4.464 25.209 4.5025 25.041 4.5795C24.873 4.6565 24.789 4.765 24.789 4.905C24.789 5.08 24.8835 5.2095 25.0725 5.2935C25.2685 5.3775 25.58 5.4615 26.007 5.5455C26.476 5.6505 26.8575 5.7555 27.1515 5.8605C27.4455 5.9655 27.701 6.137 27.918 6.375C28.135 6.613 28.2435 6.935 28.2435 7.341C28.2435 8.531 27.4 9.126 25.713 9.126Z" fill="#300864"/>
<path d="M37.7969 5.0336C37.5841 5.0336 37.4207 4.98507 37.3069 4.888C37.193 4.79093 37.1361 4.64813 37.1361 4.4596V4.3392H37.5393V4.454C37.5393 4.53053 37.5607 4.58933 37.6037 4.6304C37.6485 4.67147 37.7129 4.692 37.7969 4.692C37.879 4.692 37.9406 4.67147 37.9817 4.6304C38.0227 4.58933 38.0433 4.53053 38.0433 4.454V3.0792H38.4521V4.4596C38.4521 4.64813 38.3961 4.79093 38.2841 4.888C38.1721 4.98507 38.0097 5.0336 37.7969 5.0336ZM39.7671 5.0336C39.4591 5.0336 39.2202 4.95147 39.0503 4.7872C38.8805 4.62107 38.7955 4.37187 38.7955 4.0396C38.7955 3.70733 38.8805 3.45907 39.0503 3.2948C39.2202 3.12867 39.4591 3.0456 39.7671 3.0456C40.077 3.0456 40.3169 3.12867 40.4867 3.2948C40.6566 3.45907 40.7415 3.70733 40.7415 4.0396C40.7415 4.37187 40.6566 4.62107 40.4867 4.7872C40.3169 4.95147 40.077 5.0336 39.7671 5.0336ZM39.7671 4.6892C39.9501 4.6892 40.0882 4.63693 40.1815 4.5324C40.2767 4.426 40.3243 4.27573 40.3243 4.0816V3.9976C40.3243 3.80347 40.2767 3.65413 40.1815 3.5496C40.0882 3.4432 39.9501 3.39 39.7671 3.39C39.5842 3.39 39.4461 3.4432 39.3527 3.5496C39.2594 3.65413 39.2127 3.80347 39.2127 3.9976V4.0816C39.2127 4.27573 39.2594 4.426 39.3527 4.5324C39.4461 4.63693 39.5842 4.6892 39.7671 4.6892ZM41.1008 3.0792H42.2012C42.302 3.0792 42.3935 3.09973 42.4756 3.1408C42.5578 3.18 42.6222 3.236 42.6688 3.3088C42.7155 3.37973 42.7388 3.46187 42.7388 3.5552C42.7388 3.6616 42.709 3.754 42.6492 3.8324C42.5914 3.90893 42.5167 3.96213 42.4252 3.992V4.0032C42.5335 4.02373 42.6212 4.07693 42.6884 4.1628C42.7575 4.2468 42.792 4.34667 42.792 4.4624C42.792 4.636 42.736 4.76947 42.624 4.8628C42.5139 4.95427 42.373 5 42.2012 5H41.1008V3.0792ZM42.0864 3.8464C42.1611 3.8464 42.219 3.82773 42.26 3.7904C42.3011 3.7512 42.3216 3.70173 42.3216 3.642C42.3216 3.57107 42.302 3.51693 42.2628 3.4796C42.2255 3.44227 42.1732 3.4236 42.106 3.4236H41.5096V3.8464H42.0864ZM42.134 4.6556C42.205 4.6556 42.2628 4.63507 42.3076 4.594C42.3524 4.55293 42.3748 4.49413 42.3748 4.4176C42.3748 4.34853 42.3524 4.29253 42.3076 4.2496C42.2628 4.20667 42.1975 4.1852 42.1116 4.1852H41.5096V4.6556H42.134ZM34.3956 6.0792H35.3112C35.5259 6.0792 35.6874 6.13427 35.7956 6.2444C35.9039 6.35267 35.958 6.50667 35.958 6.7064C35.958 6.90613 35.9011 7.062 35.7872 7.174C35.6752 7.28413 35.5072 7.3392 35.2832 7.3392H34.8016V8H34.3956V6.0792ZM35.2748 6.9948C35.3626 6.9948 35.4298 6.9696 35.4764 6.9192C35.5231 6.8688 35.5464 6.79787 35.5464 6.7064C35.5464 6.6168 35.5231 6.54773 35.4764 6.4992C35.4298 6.4488 35.3626 6.4236 35.2748 6.4236H34.8016V6.9948H35.2748ZM37.2208 8.0336C36.9128 8.0336 36.6739 7.95147 36.504 7.7872C36.3342 7.62107 36.2492 7.37187 36.2492 7.0396C36.2492 6.70733 36.3342 6.45907 36.504 6.2948C36.6739 6.12867 36.9128 6.0456 37.2208 6.0456C37.5307 6.0456 37.7706 6.12867 37.9404 6.2948C38.1103 6.45907 38.1952 6.70733 38.1952 7.0396C38.1952 7.37187 38.1103 7.62107 37.9404 7.7872C37.7706 7.95147 37.5307 8.0336 37.2208 8.0336ZM37.2208 7.6892C37.4038 7.6892 37.5419 7.63693 37.6352 7.5324C37.7304 7.426 37.778 7.27573 37.778 7.0816V6.9976C37.778 6.80347 37.7304 6.65413 37.6352 6.5496C37.5419 6.4432 37.4038 6.39 37.2208 6.39C37.0379 6.39 36.8998 6.4432 36.8064 6.5496C36.7131 6.65413 36.6664 6.80347 36.6664 6.9976V7.0816C36.6664 7.27573 36.7131 7.426 36.8064 7.5324C36.8998 7.63693 37.0379 7.6892 37.2208 7.6892ZM38.5545 6.0792H39.5737C39.7884 6.0792 39.9499 6.1324 40.0581 6.2388C40.1664 6.34333 40.2205 6.4908 40.2205 6.6812C40.2205 6.95 40.1085 7.1292 39.8845 7.2188L40.2765 8H39.8369L39.4981 7.2832H38.9605V8H38.5545V6.0792ZM39.5373 6.9444C39.6251 6.9444 39.6923 6.92107 39.7389 6.8744C39.7856 6.82773 39.8089 6.76333 39.8089 6.6812C39.8089 6.59907 39.7856 6.5356 39.7389 6.4908C39.6923 6.446 39.6251 6.4236 39.5373 6.4236H38.9605V6.9444H39.5373ZM41.096 6.4292H40.5024V6.0792H42.0956V6.4292H41.502V8H41.096V6.4292ZM42.7595 6.0792H43.2691L44.0195 8H43.5771L43.4399 7.6332H42.5663L42.4291 8H42.0091L42.7595 6.0792ZM43.3111 7.2944L43.1291 6.8072C43.1067 6.74747 43.0666 6.62147 43.0087 6.4292H42.9947C42.9369 6.62147 42.8967 6.74747 42.8743 6.8072L42.6923 7.2944H43.3111ZM44.2678 6.0792H44.6738V7.6472H45.7098V8H44.2678V6.0792Z" fill="#622FCD"/>
</svg>
