<?xml version="1.0" standalone="yes"?>
<svg xmlns="http://www.w3.org/2000/svg" width="606" height="539">
<path style="fill:#ffffff; stroke:none;" d="M0 0L0 539L606 539L606 0L0 0z"/>
<path style="fill:#c7c3ff; stroke:none;" d="M485 126L485 127L489 127L485 126M475 127L476 128L475 127z"/>
<path style="fill:#7fd5e5; stroke:none;" d="M476 127.428C469.715 128.329 462.893 129.516 458.214 134.213C450.361 142.095 450.784 161.808 458.225 169.895C466.082 178.436 482.191 179.622 493 177.671C509.124 174.759 515.023 148.235 506.348 136.015C499.407 126.236 486.831 125.877 476 127.428z"/>
<path style="fill:#c7c3ff; stroke:none;" d="M494 127L495 128L494 127M469 128L470 129L469 128M463 130L464 131L463 130M500 130L501 131L500 130M453 142L454 143L453 142M509 143L510 144L509 143M452 148L452 152L453 152L452 148M509 156L510 157L509 156M453 158L454 159L453 158M454 163L455 164L454 163M455 166L456 167L455 166M506 166L507 167L506 166M505 168L506 169L505 168M457 169L458 170L457 169M458 170L459 171L458 170M502 172L503 173L502 172M501 173L502 174L501 173M500 174L501 175L500 174M497 176L498 177L497 176M474 177L475 178L474 177M494 177L495 178L494 177M165 195L165 196L171 196L165 195z"/>
<path style="fill:#759ef2; stroke:none;" d="M171 195L171 196L178 196L171 195z"/>
<path style="fill:#c7c3ff; stroke:none;" d="M178 195L178 196L184 196L178 195M345 195L345 196L349 196L345 195z"/>
<path style="fill:#759ef2; stroke:none;" d="M349 195L349 196L352 196L349 195z"/>
<path style="fill:#6b65ff; stroke:none;" d="M352 195.424C329.152 198.396 307.803 205.894 292.3 224C243.349 281.17 292.17 368.781 366 359.714C410.421 354.258 441.069 312.801 436.83 269C432.996 229.382 393.87 189.978 352 195.424z"/>
<path style="fill:#759ef2; stroke:none;" d="M360 195L360 196L364 196L360 195z"/>
<path style="fill:#c7c3ff; stroke:none;" d="M364.667 195.333L365.333 195.667L364.667 195.333M159.667 196.333L160.333 196.667L159.667 196.333z"/>
<path style="fill:#759ef2; stroke:none;" d="M161.667 196.333L162.333 196.667L161.667 196.333z"/>
<path style="fill:#6b65ff; stroke:none;" d="M136 352C144.889 357.054 154.945 359.089 165 360.166C234.642 367.622 283.376 287.537 241.36 230C234.518 220.631 226.104 212.653 216 206.873C170.259 180.705 111.815 204.001 95.5185 254C87.4695 278.695 92 309.295 92 335L92 383C92 391.766 91.3963 400.177 98.1049 406.895C108.293 417.097 127.935 414.581 134.03 401C139.973 387.757 136 366.32 136 352z"/>
<path style="fill:#759ef2; stroke:none;" d="M186.667 196.333L187.333 196.667L186.667 196.333z"/>
<path style="fill:#c7c3ff; stroke:none;" d="M188.667 196.333L189.333 196.667L188.667 196.333M340.667 196.333L341.333 196.667L340.667 196.333z"/>
<path style="fill:#759ef2; stroke:none;" d="M342 196L343 197L342 196M369 196L370 197L369 196z"/>
<path style="fill:#c7c3ff; stroke:none;" d="M370.667 196.333L371.333 196.667L370.667 196.333M155 197L156 198L155 197z"/>
<path style="fill:#759ef2; stroke:none;" d="M156 197L157 198L156 197M192 197L193 198L192 197z"/>
<path style="fill:#c7c3ff; stroke:none;" d="M193 197L194 198L193 197M335.667 197.333L336.333 197.667L335.667 197.333z"/>
<path style="fill:#759ef2; stroke:none;" d="M337 197L338 198L337 197M374 197L375 198L374 197z"/>
<path style="fill:#c7c3ff; stroke:none;" d="M375 197L376 198L375 197M151 198L152 199L151 198z"/>
<path style="fill:#759ef2; stroke:none;" d="M152 198L153 199L152 198M196 198L197 199L196 198z"/>
<path style="fill:#c7c3ff; stroke:none;" d="M197 198L198 199L197 198M332 198L333 199L332 198z"/>
<path style="fill:#759ef2; stroke:none;" d="M333 198L334 199L333 198z"/>
<path style="fill:#c7c3ff; stroke:none;" d="M378.667 198.333L379.333 198.667L378.667 198.333M472 198L473 199L472 198z"/>
<path style="fill:#7fd5e5; stroke:none;" d="M456 244L499 244C499 232.676 501.509 218.112 495.387 208.004C486.527 193.372 464.077 195.504 457.214 211C453.033 220.439 456 233.815 456 244z"/>
<path style="fill:#c7c3ff; stroke:none;" d="M483 198L484 199L483 198M148 199L149 200L148 199z"/>
<path style="fill:#759ef2; stroke:none;" d="M149 199L150 200L149 199M199 199L200 200L199 199z"/>
<path style="fill:#c7c3ff; stroke:none;" d="M200 199L201 200L200 199M329 199L330 200L329 199M381 199L382 200L381 199M145 200L146 201L145 200z"/>
<path style="fill:#759ef2; stroke:none;" d="M146 200L147 201L146 200M202 200L203 201L202 200z"/>
<path style="fill:#c7c3ff; stroke:none;" d="M203 200L204 201L203 200M326 200L327 201L326 200z"/>
<path style="fill:#759ef2; stroke:none;" d="M327 200L328 201L327 200M383 200L384 201L383 200z"/>
<path style="fill:#c7c3ff; stroke:none;" d="M384 200L385 201L384 200M143 201L144 202L143 201M205 201L206 202L205 201M323.667 201.333L324.333 201.667L323.667 201.333z"/>
<path style="fill:#759ef2; stroke:none;" d="M386 201L387 202L386 201z"/>
<path style="fill:#c7c3ff; stroke:none;" d="M465 201L466 202L465 201M489 201L490 202L489 201M141 202L142 203L141 202z"/>
<path style="fill:#759ef2; stroke:none;" d="M207 202L208 203L207 202z"/>
<path style="fill:#c7c3ff; stroke:none;" d="M208 202L209 203L208 202M321 202L322 203L321 202z"/>
<path style="fill:#759ef2; stroke:none;" d="M322 202L323 203L322 202M388 202L389 203L388 202z"/>
<path style="fill:#c7c3ff; stroke:none;" d="M389 202L390 203L389 202z"/>
<path style="fill:#759ef2; stroke:none;" d="M139 203L140 204L139 203M209 203L210 204L209 203z"/>
<path style="fill:#c7c3ff; stroke:none;" d="M210 203L211 204L210 203M319 203L320 204L319 203z"/>
<path style="fill:#759ef2; stroke:none;" d="M390 203L391 204L390 203z"/>
<path style="fill:#c7c3ff; stroke:none;" d="M391 203L392 204L391 203z"/>
<path style="fill:#759ef2; stroke:none;" d="M137 204L138 205L137 204M211 204L212 205L211 204z"/>
<path style="fill:#c7c3ff; stroke:none;" d="M212 204L213 205L212 204M317 204L318 205L317 204z"/>
<path style="fill:#759ef2; stroke:none;" d="M392 204L393 205L392 204z"/>
<path style="fill:#c7c3ff; stroke:none;" d="M393 204L394 205L393 204z"/>
<path style="fill:#759ef2; stroke:none;" d="M135 205L136 206L135 205M213 205L214 206L213 205z"/>
<path style="fill:#c7c3ff; stroke:none;" d="M315 205L316 206L315 205z"/>
<path style="fill:#759ef2; stroke:none;" d="M394 205L395 206L394 205z"/>
<path style="fill:#c7c3ff; stroke:none;" d="M493 205L494 206L493 205M133 206L134 207L133 206M215 206L216 207L215 206M313 206L314 207L313 206M396 206L397 207L396 206z"/>
<path style="fill:#759ef2; stroke:none;" d="M132 207L133 208L132 207z"/>
<path style="fill:#c7c3ff; stroke:none;" d="M217 207L218 208L217 207z"/>
<path style="fill:#759ef2; stroke:none;" d="M312 207L313 208L312 207z"/>
<path style="fill:#c7c3ff; stroke:none;" d="M398 207L399 208L398 207M130 208L131 209L130 208z"/>
<path style="fill:#759ef2; stroke:none;" d="M218 208L219 209L218 208z"/>
<path style="fill:#c7c3ff; stroke:none;" d="M310 208L311 209L310 208z"/>
<path style="fill:#759ef2; stroke:none;" d="M399 208L400 209L399 208z"/>
<path style="fill:#c7c3ff; stroke:none;" d="M458 208L459 209L458 208M128 209L129 210L128 209M220 209L221 210L220 209M308 209L309 210L308 209z"/>
<path style="fill:#759ef2; stroke:none;" d="M309 209L310 210L309 209z"/>
<path style="fill:#c7c3ff; stroke:none;" d="M401 209L402 210L401 209M127 210L128 211L127 210z"/>
<path style="fill:#759ef2; stroke:none;" d="M221 210L222 211L221 210z"/>
<path style="fill:#c7c3ff; stroke:none;" d="M307 210L308 211L307 210z"/>
<path style="fill:#759ef2; stroke:none;" d="M402 210L403 211L402 210M126 211L127 212L126 211z"/>
<path style="fill:#c7c3ff; stroke:none;" d="M223 211L224 212L223 211z"/>
<path style="fill:#759ef2; stroke:none;" d="M306 211L307 212L306 211M403 211L404 212L403 211z"/>
<path style="fill:#c7c3ff; stroke:none;" d="M124 212L125 213L124 212M224 212L225 213L224 212M304 212L305 213L304 212M405 212L406 213L405 212M456 212L457 213L456 212M497 212L498 213L497 212M123 213L124 214L123 213z"/>
<path style="fill:#759ef2; stroke:none;" d="M225 213L226 214L225 213z"/>
<path style="fill:#c7c3ff; stroke:none;" d="M303 213L304 214L303 213z"/>
<path style="fill:#759ef2; stroke:none;" d="M406 213L407 214L406 213M122 214L123 215L122 214z"/>
<path style="fill:#c7c3ff; stroke:none;" d="M227 214L228 215L227 214z"/>
<path style="fill:#759ef2; stroke:none;" d="M302 214L303 215L302 214M407 214L408 215L407 214z"/>
<path style="fill:#c7c3ff; stroke:none;" d="M228 215L229 216L228 215M455.333 215.667L455.667 216.333L455.333 215.667M498 215L499 216L498 215M119 216L120 217L119 216M229 216L230 217L229 216M299 216L300 217L299 216M118 217L119 218L118 217M230 217L231 218L230 217M298 217L299 218L298 217M411 217L412 218L411 217M117 218L118 219L117 218M231 218L232 219L231 218M297 218L298 219L297 218M412 218L413 219L412 218M116 219L117 220L116 219z"/>
<path style="fill:#759ef2; stroke:none;" d="M232 219L233 220L232 219z"/>
<path style="fill:#c7c3ff; stroke:none;" d="M296 219L297 220L296 219M413 219L414 220L413 219M115 220L116 221L115 220M233 220L234 221L233 220M295 220L296 221L295 220M414 220L415 221L414 220M114 221L115 222L114 221M234 221L235 222L234 221M294 221L295 222L294 221M113 222L114 223L113 222M235 222L236 223L235 222M293 222L294 223L293 222M236 223L237 224L236 223M292 223L293 224L292 223z"/>
<path style="fill:#759ef2; stroke:none;" d="M455 223L455 327L456 327L456 320C468.564 322.531 486.342 322.034 499 320L499 244L456 244L455 223z"/>
<path style="fill:#c7c3ff; stroke:none;" d="M237 224L238 225L237 224z"/>
<path style="fill:#759ef2; stroke:none;" d="M417 224L418 225L417 224M418 225L419 226L418 225M110 226L111 227L110 226M238 226L239 227L238 226M290 226L291 227L290 226z"/>
<path style="fill:#c7c3ff; stroke:none;" d="M419 226L420 227L419 226M109 227L110 228L109 227z"/>
<path style="fill:#759ef2; stroke:none;" d="M239 227L240 228L239 227z"/>
<path style="fill:#c7c3ff; stroke:none;" d="M289 227L290 228L289 227M108 228L109 229L108 228M240 228L241 229L240 228M288 228L289 229L288 228z"/>
<path style="fill:#759ef2; stroke:none;" d="M421 229L422 230L421 229M107 230L108 231L107 230M241 230L242 231L241 230M287 230L288 231L287 230z"/>
<path style="fill:#c7c3ff; stroke:none;" d="M422 230L423 231L422 230M106 231L107 232L106 231z"/>
<path style="fill:#759ef2; stroke:none;" d="M242 231L243 232L242 231z"/>
<path style="fill:#c7c3ff; stroke:none;" d="M286 231L287 232L286 231z"/>
<path style="fill:#759ef2; stroke:none;" d="M344 231L344 232L358 232L344 231z"/>
<path style="fill:#c7c3ff; stroke:none;" d="M105 232L106 233L105 232M243 232L244 233L243 232M285 232L286 233L285 232z"/>
<path style="fill:#759ef2; stroke:none;" d="M339 232L340 233L339 232z"/>
<path style="fill:#c7c3ff; stroke:none;" d="M340.667 232.333L341.333 232.667L340.667 232.333z"/>
<path style="fill:#ffffff; stroke:none;" d="M342 232.465C312.581 237.759 296.24 277.698 313.249 302.985C325.614 321.368 348.981 323.925 369 320.385C403.023 314.369 410.576 269.855 390.471 245.04C380.054 232.183 357.315 229.708 342 232.465z"/>
<path style="fill:#c7c3ff; stroke:none;" d="M363 232L363 233L367 233L363 232z"/>
<path style="fill:#759ef2; stroke:none;" d="M367 232L368 233L367 232M423 232L424 233L423 232M105 233L106 234L105 233M285 233L286 234L285 233M335 233L336 234L335 233z"/>
<path style="fill:#c7c3ff; stroke:none;" d="M336.667 233.333L337.333 233.667L336.667 233.333M370 233L371 234L370 233z"/>
<path style="fill:#759ef2; stroke:none;" d="M371 233L372 234L371 233z"/>
<path style="fill:#c7c3ff; stroke:none;" d="M424 233L425 234L424 233M104 234L105 235L104 234z"/>
<path style="fill:#759ef2; stroke:none;" d="M167 234L168 235L167 234z"/>
<path style="fill:#c7c3ff; stroke:none;" d="M168 234L168 235L173 235L168 234z"/>
<path style="fill:#ffffff; stroke:none;" d="M173 234.424C161.875 235.889 150.141 236.823 142.329 246.015C126.572 264.555 125.574 304.639 148 318.867C155.603 323.69 166.316 323.839 175 322.711C189.462 320.831 205.568 314.126 213.12 301C231.137 269.684 210.988 229.424 173 234.424z"/>
<path style="fill:#c7c3ff; stroke:none;" d="M183 234L183 235L187 235L183 234z"/>
<path style="fill:#759ef2; stroke:none;" d="M187 234L188 235L187 234z"/>
<path style="fill:#c7c3ff; stroke:none;" d="M244 234L245 235L244 234M284 234L285 235L284 234z"/>
<path style="fill:#759ef2; stroke:none;" d="M333 234L334 235L333 234z"/>
<path style="fill:#c7c3ff; stroke:none;" d="M334 234L335 235L334 234M373 234L374 235L373 234z"/>
<path style="fill:#759ef2; stroke:none;" d="M374 234L375 235L374 234M161 235L162 236L161 235z"/>
<path style="fill:#c7c3ff; stroke:none;" d="M162.667 235.333L163.333 235.667L162.667 235.333M190.667 235.333L191.333 235.667L190.667 235.333z"/>
<path style="fill:#759ef2; stroke:none;" d="M192 235L193 236L192 235z"/>
<path style="fill:#c7c3ff; stroke:none;" d="M331 235L332 236L331 235M376 235L377 236L376 235z"/>
<path style="fill:#759ef2; stroke:none;" d="M377 235L378 236L377 235M425 235L426 236L425 235M103 236L104 237L103 236M157 236L158 237L157 236z"/>
<path style="fill:#c7c3ff; stroke:none;" d="M158 236L159 237L158 236M194 236L195 237L194 236z"/>
<path style="fill:#759ef2; stroke:none;" d="M195 236L196 237L195 236M245 236L246 237L245 236M283 236L284 237L283 236M329 236L330 237L329 236z"/>
<path style="fill:#c7c3ff; stroke:none;" d="M378 236L379 237L378 236z"/>
<path style="fill:#759ef2; stroke:none;" d="M379 236L380 237L379 236z"/>
<path style="fill:#c7c3ff; stroke:none;" d="M426 236L427 237L426 236M102 237L103 238L102 237z"/>
<path style="fill:#759ef2; stroke:none;" d="M154 237L155 238L154 237z"/>
<path style="fill:#c7c3ff; stroke:none;" d="M155 237L156 238L155 237M197 237L198 238L197 237z"/>
<path style="fill:#759ef2; stroke:none;" d="M198 237L199 238L198 237z"/>
<path style="fill:#c7c3ff; stroke:none;" d="M246 237L247 238L246 237M282 237L283 238L282 237z"/>
<path style="fill:#759ef2; stroke:none;" d="M327 237L328 238L327 237z"/>
<path style="fill:#c7c3ff; stroke:none;" d="M380 237L381 238L380 237z"/>
<path style="fill:#759ef2; stroke:none;" d="M381 237L382 238L381 237M151 238L152 239L151 238z"/>
<path style="fill:#c7c3ff; stroke:none;" d="M152 238L153 239L152 238z"/>
<path style="fill:#759ef2; stroke:none;" d="M200 238L201 239L200 238M282 238L283 239L282 238z"/>
<path style="fill:#c7c3ff; stroke:none;" d="M326 238L327 239L326 238M382 238L383 239L382 238M427 238L428 239L427 238M101 239L102 240L101 239z"/>
<path style="fill:#759ef2; stroke:none;" d="M149 239L150 240L149 239z"/>
<path style="fill:#c7c3ff; stroke:none;" d="M150 239L151 240L150 239z"/>
<path style="fill:#759ef2; stroke:none;" d="M202 239L203 240L202 239z"/>
<path style="fill:#c7c3ff; stroke:none;" d="M247 239L248 240L247 239M281 239L282 240L281 239z"/>
<path style="fill:#759ef2; stroke:none;" d="M324 239L325 240L324 239M384 239L385 240L384 239z"/>
<path style="fill:#c7c3ff; stroke:none;" d="M148 240L149 241L148 240M203 240L204 241L203 240z"/>
<path style="fill:#759ef2; stroke:none;" d="M281 240L282 241L281 240z"/>
<path style="fill:#c7c3ff; stroke:none;" d="M323 240L324 241L323 240M385 240L386 241L385 240M428 240L429 241L428 240M100 241L101 242L100 241z"/>
<path style="fill:#759ef2; stroke:none;" d="M146 241L147 242L146 241M205 241L206 242L205 241z"/>
<path style="fill:#c7c3ff; stroke:none;" d="M248 241L249 242L248 241M280 241L281 242L280 241M322 241L323 242L322 241M145 242L146 243L145 242M206 242L207 243L206 242z"/>
<path style="fill:#759ef2; stroke:none;" d="M280 242L281 243L280 242z"/>
<path style="fill:#c7c3ff; stroke:none;" d="M321 242L322 243L321 242z"/>
<path style="fill:#759ef2; stroke:none;" d="M388 242L389 243L388 242z"/>
<path style="fill:#c7c3ff; stroke:none;" d="M429 242L430 243L429 242M99 243L100 244L99 243M144 243L145 244L144 243M207 243L208 244L207 243M249 243L250 244L249 243M279 243L280 244L279 243M320 243L321 244L320 243z"/>
<path style="fill:#759ef2; stroke:none;" d="M389 243L390 244L389 243z"/>
<path style="fill:#c7c3ff; stroke:none;" d="M143 244L144 245L143 244M208 244L209 245L208 244z"/>
<path style="fill:#759ef2; stroke:none;" d="M279 244L280 245L279 244z"/>
<path style="fill:#c7c3ff; stroke:none;" d="M430 244L431 245L430 244M98 245L99 246L98 245M142 245L143 246L142 245M209 245L210 246L209 245M250 245L251 246L250 245M278 245L279 246L278 245z"/>
<path style="fill:#759ef2; stroke:none;" d="M141 246L142 247L141 246z"/>
<path style="fill:#c7c3ff; stroke:none;" d="M210 246L211 247L210 246z"/>
<path style="fill:#759ef2; stroke:none;" d="M278 246L279 247L278 246z"/>
<path style="fill:#c7c3ff; stroke:none;" d="M317 246L318 247L317 246M391 246L392 247L391 246M431 246L432 247L431 246M97 247L98 248L97 247z"/>
<path style="fill:#759ef2; stroke:none;" d="M211 247L212 248L211 247z"/>
<path style="fill:#c7c3ff; stroke:none;" d="M251 247L252 248L251 247M316 247L317 248L316 247M392 247L393 248L392 247z"/>
<path style="fill:#759ef2; stroke:none;" d="M431 247L432 248L431 247M97 248L98 249L97 248z"/>
<path style="fill:#c7c3ff; stroke:none;" d="M140 248L141 249L140 248z"/>
<path style="fill:#759ef2; stroke:none;" d="M212 248L213 249L212 248M251 248L252 249L251 248z"/>
<path style="fill:#c7c3ff; stroke:none;" d="M277 248L278 249L277 248z"/>
<path style="fill:#759ef2; stroke:none;" d="M315 248L316 249L315 248M139 249L140 250L139 249M277 249L278 250L277 249z"/>
<path style="fill:#c7c3ff; stroke:none;" d="M393 249L394 250L393 249M432 249L433 250L432 249M96 250L97 251L96 250M213 250L214 251L213 250M252 250L253 251L252 250M314 250L315 251L314 250z"/>
<path style="fill:#759ef2; stroke:none;" d="M394 250L395 251L394 250M96 251L97 252L96 251z"/>
<path style="fill:#c7c3ff; stroke:none;" d="M138 251L139 252L138 251z"/>
<path style="fill:#759ef2; stroke:none;" d="M214 251L215 252L214 251M252 251L253 252L252 251z"/>
<path style="fill:#c7c3ff; stroke:none;" d="M276 251L277 252L276 251z"/>
<path style="fill:#759ef2; stroke:none;" d="M313 251L314 252L313 251z"/>
<path style="fill:#c7c3ff; stroke:none;" d="M394 251L395 252L394 251M433.333 251.667L433.667 252.333L433.333 251.667z"/>
<path style="fill:#759ef2; stroke:none;" d="M395 252L396 253L395 252z"/>
<path style="fill:#c7c3ff; stroke:none;" d="M95 253L96 254L95 253M137 253L138 254L137 253z"/>
<path style="fill:#759ef2; stroke:none;" d="M215 253L216 254L215 253z"/>
<path style="fill:#c7c3ff; stroke:none;" d="M253 253L254 254L253 253M312 253L313 254L312 253M395 253L396 254L395 253z"/>
<path style="fill:#759ef2; stroke:none;" d="M253 254L254 255L253 254z"/>
<path style="fill:#c7c3ff; stroke:none;" d="M275 254L276 255L275 254M434.333 254.667L434.667 255.333L434.333 254.667M136 255L137 256L136 255z"/>
<path style="fill:#759ef2; stroke:none;" d="M216 255L217 256L216 255M275 255L276 256L275 255z"/>
<path style="fill:#c7c3ff; stroke:none;" d="M311 255L312 256L311 255M396 255L397 256L396 255M94 256L95 257L94 256M216 256L217 257L216 256M254 256L255 257L254 256z"/>
<path style="fill:#759ef2; stroke:none;" d="M434 256L435 257L434 256M94 257L95 258L94 257z"/>
<path style="fill:#c7c3ff; stroke:none;" d="M135 257L136 258L135 257z"/>
<path style="fill:#759ef2; stroke:none;" d="M254 257L255 258L254 257z"/>
<path style="fill:#c7c3ff; stroke:none;" d="M274.333 257.667L274.667 258.333L274.333 257.667M310 257L311 258L310 257z"/>
<path style="fill:#759ef2; stroke:none;" d="M397 257L398 258L397 257z"/>
<path style="fill:#c7c3ff; stroke:none;" d="M217.333 258.667L217.667 259.333L217.333 258.667M397 258L398 259L397 258M435.333 258.667L435.667 259.333L435.333 258.667M93.3333 259.667L93.6667 260.333L93.3333 259.667z"/>
<path style="fill:#759ef2; stroke:none;" d="M134 259L135 260L134 259M274 259L275 260L274 259M309 259L310 260L309 259z"/>
<path style="fill:#c7c3ff; stroke:none;" d="M134 260L135 261L134 260M255 260L256 261L255 260M309 260L310 261L309 260z"/>
<path style="fill:#759ef2; stroke:none;" d="M435 260L436 261L435 260M93 261L94 262L93 261M218 261L219 262L218 261M255.333 261.667L255.667 262.333L255.333 261.667z"/>
<path style="fill:#c7c3ff; stroke:none;" d="M273 261L273 264L274 264L273 261M398.333 261.667L398.667 262.333L398.333 261.667z"/>
<path style="fill:#759ef2; stroke:none;" d="M133 262L134 263L133 262z"/>
<path style="fill:#c7c3ff; stroke:none;" d="M218.333 262.667L218.667 263.333L218.333 262.667M133 263L134 264L133 263M308.333 263.667L308.667 264.333L308.333 263.667M436.333 263.667L436.667 264.333L436.333 263.667M92 264L92 267L93 267L92 264z"/>
<path style="fill:#759ef2; stroke:none;" d="M273 264L274 265L273 264M399 264L400 265L399 264M132 265L133 266L132 265z"/>
<path style="fill:#c7c3ff; stroke:none;" d="M256 265L256 268L257 268L256 265M399 265L399 268L400 268L399 265z"/>
<path style="fill:#759ef2; stroke:none;" d="M436.333 265.667L436.667 266.333L436.333 265.667z"/>
<path style="fill:#c7c3ff; stroke:none;" d="M132.333 266.667L132.667 267.333L132.333 266.667z"/>
<path style="fill:#759ef2; stroke:none;" d="M219.333 266.667L219.667 267.333L219.333 266.667M92 267L93 268L92 267z"/>
<path style="fill:#c7c3ff; stroke:none;" d="M219 268L219 278L220 278L219 268z"/>
<path style="fill:#759ef2; stroke:none;" d="M256 268L257 269L256 268z"/>
<path style="fill:#c7c3ff; stroke:none;" d="M272 268L272 273L273 273L272 268z"/>
<path style="fill:#759ef2; stroke:none;" d="M307.333 268.667L307.667 269.333L307.333 268.667M131 269L132 270L131 269z"/>
<path style="fill:#c7c3ff; stroke:none;" d="M437 269L437 277L438 277L437 269M131.333 270.667L131.667 271.333L131.333 270.667M307 270L307 281L308 281L307 270z"/>
<path style="fill:#759ef2; stroke:none;" d="M400 270L401 271L400 270z"/>
<path style="fill:#c7c3ff; stroke:none;" d="M400 271L400 274L401 274L400 271M91 272L91 395L92 395L92 309C92 298.366 95.1077 281.789 91 272z"/>
<path style="fill:#759ef2; stroke:none;" d="M272 273L272 283L273 283L272 273M130 275L130 286L131 286L130 275z"/>
<path style="fill:#c7c3ff; stroke:none;" d="M257 275L257 281L258 281L257 275z"/>
<path style="fill:#759ef2; stroke:none;" d="M437.333 277.667L437.667 278.333L437.333 277.667M219 278L219 281L220 281L219 278z"/>
<path style="fill:#c7c3ff; stroke:none;" d="M437 279L437 287L438 287L437 279z"/>
<path style="fill:#759ef2; stroke:none;" d="M401 280L401 287L402 287L401 280M307 281L307 284L308 284L307 281z"/>
<path style="fill:#c7c3ff; stroke:none;" d="M272 283L272 288L273 288L272 283M218.333 284.667L218.667 285.333L218.333 284.667z"/>
<path style="fill:#759ef2; stroke:none;" d="M218 286L219 287L218 286M256.333 287.667L256.667 288.333L256.333 287.667z"/>
<path style="fill:#c7c3ff; stroke:none;" d="M308.333 287.667L308.667 288.333L308.333 287.667M131.333 289.667L131.667 290.333L131.333 289.667M217.333 289.667L217.667 290.333L217.333 289.667M256 289L256 292L257 292L256 289z"/>
<path style="fill:#759ef2; stroke:none;" d="M308.333 289.667L308.667 290.333L308.333 289.667M436.333 289.667L436.667 290.333L436.333 289.667z"/>
<path style="fill:#c7c3ff; stroke:none;" d="M400.333 290.667L400.667 291.333L400.333 290.667z"/>
<path style="fill:#759ef2; stroke:none;" d="M131 291L132 292L131 291M217 291L218 292L217 291M273.333 291.667L273.667 292.333L273.333 291.667z"/>
<path style="fill:#c7c3ff; stroke:none;" d="M436 291L436 294L437 294L436 291z"/>
<path style="fill:#759ef2; stroke:none;" d="M400 292L401 293L400 292z"/>
<path style="fill:#c7c3ff; stroke:none;" d="M132.333 293.667L132.667 294.333L132.333 293.667M216 293L217 294L216 293M273.333 293.667L273.667 294.333L273.333 293.667M309.333 293.667L309.667 294.333L309.333 293.667z"/>
<path style="fill:#759ef2; stroke:none;" d="M216 294L217 295L216 294M255 294L256 295L255 294z"/>
<path style="fill:#c7c3ff; stroke:none;" d="M399 294L400 295L399 294M255.333 295.667L255.667 296.333L255.333 295.667z"/>
<path style="fill:#759ef2; stroke:none;" d="M309 295L310 296L309 295M399 295L400 296L399 295M435 295L436 296L435 295z"/>
<path style="fill:#c7c3ff; stroke:none;" d="M133 296L134 297L133 296M215 296L216 297L215 296M435.333 296.667L435.667 297.333L435.333 296.667z"/>
<path style="fill:#759ef2; stroke:none;" d="M133 297L134 298L133 297M274 297L275 298L274 297z"/>
<path style="fill:#c7c3ff; stroke:none;" d="M310 297L311 298L310 297z"/>
<path style="fill:#759ef2; stroke:none;" d="M398 297L399 298L398 297z"/>
<path style="fill:#c7c3ff; stroke:none;" d="M214 298L215 299L214 298M274 298L275 299L274 298z"/>
<path style="fill:#759ef2; stroke:none;" d="M310 298L311 299L310 298z"/>
<path style="fill:#c7c3ff; stroke:none;" d="M134 299L135 300L134 299M254.333 299.667L254.667 300.333L254.333 299.667M397 299L398 300L397 299z"/>
<path style="fill:#759ef2; stroke:none;" d="M434 299L435 300L434 299M134 300L135 301L134 300z"/>
<path style="fill:#c7c3ff; stroke:none;" d="M213 300L214 301L213 300M311 300L312 301L311 300M434.333 300.667L434.667 301.333L434.333 300.667z"/>
<path style="fill:#759ef2; stroke:none;" d="M275 301L276 302L275 301M396 301L397 302L396 301z"/>
<path style="fill:#c7c3ff; stroke:none;" d="M135 302L136 303L135 302z"/>
<path style="fill:#759ef2; stroke:none;" d="M212 302L213 303L212 302M253 302L254 303L253 302z"/>
<path style="fill:#c7c3ff; stroke:none;" d="M275 302L276 303L275 302z"/>
<path style="fill:#759ef2; stroke:none;" d="M312 302L313 303L312 302z"/>
<path style="fill:#c7c3ff; stroke:none;" d="M395 302L396 303L395 302M211 303L212 304L211 303M253 303L254 304L253 303M313 303L314 304L313 303z"/>
<path style="fill:#759ef2; stroke:none;" d="M433 303L434 304L433 303z"/>
<path style="fill:#c7c3ff; stroke:none;" d="M136 304L137 305L136 304z"/>
<path style="fill:#759ef2; stroke:none;" d="M276 304L277 305L276 304z"/>
<path style="fill:#c7c3ff; stroke:none;" d="M314 304L315 305L314 304M394 304L395 305L394 304M433 304L434 305L433 304z"/>
<path style="fill:#759ef2; stroke:none;" d="M136 305L137 306L136 305M210 305L211 306L210 305M252 305L253 306L252 305z"/>
<path style="fill:#c7c3ff; stroke:none;" d="M276 305L277 306L276 305z"/>
<path style="fill:#759ef2; stroke:none;" d="M209 306L210 307L209 306z"/>
<path style="fill:#c7c3ff; stroke:none;" d="M252 306L253 307L252 306z"/>
<path style="fill:#759ef2; stroke:none;" d="M393 306L394 307L393 306z"/>
<path style="fill:#c7c3ff; stroke:none;" d="M432 306L433 307L432 306z"/>
<path style="fill:#759ef2; stroke:none;" d="M137 307L138 308L137 307M208 307L209 308L208 307M277 307L278 308L277 307z"/>
<path style="fill:#c7c3ff; stroke:none;" d="M392 307L393 308L392 307M138 308L139 309L138 308z"/>
<path style="fill:#759ef2; stroke:none;" d="M207 308L208 309L207 308M251 308L252 309L251 308z"/>
<path style="fill:#c7c3ff; stroke:none;" d="M277 308L278 309L277 308M318 308L319 309L318 308M391 308L392 309L391 308z"/>
<path style="fill:#759ef2; stroke:none;" d="M431 308L432 309L431 308M138 309L139 310L138 309M206 309L207 310L206 309z"/>
<path style="fill:#c7c3ff; stroke:none;" d="M251 309L252 310L251 309M319 309L320 310L319 309M431 309L432 310L431 309M139 310L140 311L139 310z"/>
<path style="fill:#759ef2; stroke:none;" d="M205 310L206 311L205 310z"/>
<path style="fill:#c7c3ff; stroke:none;" d="M278 310L279 311L278 310M320 310L321 311L320 310M203 311L204 312L203 311M250 311L251 312L250 311M321 311L322 312L321 311M430 311L431 312L430 311z"/>
<path style="fill:#759ef2; stroke:none;" d="M140 312L141 313L140 312z"/>
<path style="fill:#c7c3ff; stroke:none;" d="M202 312L203 313L202 312z"/>
<path style="fill:#759ef2; stroke:none;" d="M279 312L280 313L279 312M322 312L323 313L322 312M141 313L142 314L141 313z"/>
<path style="fill:#c7c3ff; stroke:none;" d="M249 313L250 314L249 313M386 313L387 314L386 313M429 313L430 314L429 313M142 314L143 315L142 314M199 314L200 315L199 314z"/>
<path style="fill:#759ef2; stroke:none;" d="M280 314L281 315L280 314z"/>
<path style="fill:#c7c3ff; stroke:none;" d="M325 314L326 315L325 314M385 314L386 315L385 314M143 315L144 316L143 315M197 315L198 316L197 315M248 315L249 316L248 315z"/>
<path style="fill:#759ef2; stroke:none;" d="M326 315L327 316L326 315z"/>
<path style="fill:#c7c3ff; stroke:none;" d="M383 315L384 316L383 315M428 315L429 316L428 315z"/>
<path style="fill:#759ef2; stroke:none;" d="M144 316L145 317L144 316z"/>
<path style="fill:#c7c3ff; stroke:none;" d="M195 316L196 317L195 316z"/>
<path style="fill:#759ef2; stroke:none;" d="M281 316L282 317L281 316z"/>
<path style="fill:#c7c3ff; stroke:none;" d="M328 316L329 317L328 316M381 316L382 317L381 316z"/>
<path style="fill:#759ef2; stroke:none;" d="M382 316L383 317L382 316M145 317L146 318L145 317z"/>
<path style="fill:#c7c3ff; stroke:none;" d="M193 317L194 318L193 317z"/>
<path style="fill:#759ef2; stroke:none;" d="M247 317L248 318L247 317z"/>
<path style="fill:#c7c3ff; stroke:none;" d="M281 317L282 318L281 317M330 317L331 318L330 317M379 317L380 318L379 317z"/>
<path style="fill:#759ef2; stroke:none;" d="M380 317L381 318L380 317z"/>
<path style="fill:#c7c3ff; stroke:none;" d="M427 317L428 318L427 317M147 318L148 319L147 318z"/>
<path style="fill:#759ef2; stroke:none;" d="M191 318L192 319L191 318M282 318L283 319L282 318z"/>
<path style="fill:#c7c3ff; stroke:none;" d="M332 318L333 319L332 318M377 318L378 319L377 318z"/>
<path style="fill:#759ef2; stroke:none;" d="M148 319L149 320L148 319z"/>
<path style="fill:#c7c3ff; stroke:none;" d="M188 319L189 320L188 319z"/>
<path style="fill:#759ef2; stroke:none;" d="M189 319L190 320L189 319z"/>
<path style="fill:#c7c3ff; stroke:none;" d="M246 319L247 320L246 319M335 319L336 320L335 319M373.667 319.333L374.333 319.667L373.667 319.333M426 319L427 320L426 319z"/>
<path style="fill:#759ef2; stroke:none;" d="M150 320L151 321L150 320z"/>
<path style="fill:#c7c3ff; stroke:none;" d="M185 320L186 321L185 320z"/>
<path style="fill:#759ef2; stroke:none;" d="M186 320L187 321L186 320z"/>
<path style="fill:#c7c3ff; stroke:none;" d="M283 320L284 321L283 320z"/>
<path style="fill:#759ef2; stroke:none;" d="M338 320L339 321L338 320z"/>
<path style="fill:#c7c3ff; stroke:none;" d="M339 320L340 321L339 320M368.667 320.333L369.333 320.667L368.667 320.333z"/>
<path style="fill:#759ef2; stroke:none;" d="M370.667 320.333L371.333 320.667L370.667 320.333M425 320L426 321L425 320z"/>
<path style="fill:#6b65ff; stroke:none;" d="M456 320C455.762 331.545 452.691 343.495 459.468 353.96C467.805 366.833 489.54 365.735 496.442 352C501.095 342.741 499 330.055 499 320L456 320z"/>
<path style="fill:#759ef2; stroke:none;" d="M152 321L153 322L152 321z"/>
<path style="fill:#c7c3ff; stroke:none;" d="M153 321L154 322L153 321M181 321L182 322L181 321z"/>
<path style="fill:#759ef2; stroke:none;" d="M182 321L183 322L182 321z"/>
<path style="fill:#c7c3ff; stroke:none;" d="M245 321L246 322L245 321z"/>
<path style="fill:#759ef2; stroke:none;" d="M343 321L344 322L343 321z"/>
<path style="fill:#c7c3ff; stroke:none;" d="M344 321L344 322L348 322L344 321M358 321L358 322L364 322L358 321z"/>
<path style="fill:#759ef2; stroke:none;" d="M364.667 321.333L365.333 321.667L364.667 321.333M155 322L156 323L155 322z"/>
<path style="fill:#c7c3ff; stroke:none;" d="M156.667 322.333L157.333 322.667L156.667 322.333M176.667 322.333L177.333 322.667L176.667 322.333z"/>
<path style="fill:#759ef2; stroke:none;" d="M178 322L179 323L178 322M244 322L245 323L244 322z"/>
<path style="fill:#c7c3ff; stroke:none;" d="M284 322L285 323L284 322M424 322L425 323L424 322z"/>
<path style="fill:#759ef2; stroke:none;" d="M160 323L160 324L163 324L160 323z"/>
<path style="fill:#c7c3ff; stroke:none;" d="M163 323L163 324L170 324L163 323z"/>
<path style="fill:#759ef2; stroke:none;" d="M170 323L170 324L173 324L170 323M285 323L286 324L285 323z"/>
<path style="fill:#c7c3ff; stroke:none;" d="M243 324L244 325L243 324M423 324L424 325L423 324z"/>
<path style="fill:#759ef2; stroke:none;" d="M242 325L243 326L242 325z"/>
<path style="fill:#c7c3ff; stroke:none;" d="M286 325L287 326L286 325M422 325L423 326L422 325z"/>
<path style="fill:#759ef2; stroke:none;" d="M287 326L288 327L287 326M421 326L422 327L421 326z"/>
<path style="fill:#c7c3ff; stroke:none;" d="M241 327L242 328L241 327M240 328L241 329L240 328M420 328L421 329L420 328z"/>
<path style="fill:#759ef2; stroke:none;" d="M239 329L240 330L239 329z"/>
<path style="fill:#c7c3ff; stroke:none;" d="M289 329L290 330L289 329M419 329L420 330L419 329z"/>
<path style="fill:#759ef2; stroke:none;" d="M290 330L291 331L290 330M418 330L419 331L418 330z"/>
<path style="fill:#c7c3ff; stroke:none;" d="M238 331L239 332L238 331z"/>
<path style="fill:#759ef2; stroke:none;" d="M291 331L292 332L291 331z"/>
<path style="fill:#c7c3ff; stroke:none;" d="M237 332L238 333L237 332M236 333L237 334L236 333M235 334L236 335L235 334M415 334L416 335L415 334z"/>
<path style="fill:#759ef2; stroke:none;" d="M234 335L235 336L234 335z"/>
<path style="fill:#c7c3ff; stroke:none;" d="M294 335L295 336L294 335M414 335L415 336L414 335z"/>
<path style="fill:#759ef2; stroke:none;" d="M233 336L234 337L233 336z"/>
<path style="fill:#c7c3ff; stroke:none;" d="M295 336L296 337L295 336M413 336L414 337L413 336z"/>
<path style="fill:#759ef2; stroke:none;" d="M232 337L233 338L232 337z"/>
<path style="fill:#c7c3ff; stroke:none;" d="M296 337L297 338L296 337M412 337L413 338L412 337z"/>
<path style="fill:#759ef2; stroke:none;" d="M231 338L232 339L231 338z"/>
<path style="fill:#c7c3ff; stroke:none;" d="M297 338L298 339L297 338M411 338L412 339L411 338M230 339L231 340L230 339M410 339L411 340L410 339M229 340L230 341L229 340M228 341L229 342L228 341z"/>
<path style="fill:#759ef2; stroke:none;" d="M301 341L302 342L301 341z"/>
<path style="fill:#c7c3ff; stroke:none;" d="M227 342L228 343L227 342z"/>
<path style="fill:#759ef2; stroke:none;" d="M302 342L303 343L302 342M406 342L407 343L406 342M225 343L226 344L225 343z"/>
<path style="fill:#c7c3ff; stroke:none;" d="M303 343L304 344L303 343M405 343L406 344L405 343z"/>
<path style="fill:#759ef2; stroke:none;" d="M455 343L456 344L455 343z"/>
<path style="fill:#c7c3ff; stroke:none;" d="M224 344L225 345L224 344z"/>
<path style="fill:#759ef2; stroke:none;" d="M305 344L306 345L305 344z"/>
<path style="fill:#c7c3ff; stroke:none;" d="M404 344L405 345L404 344M455 344L456 345L455 344M223 345L224 346L223 345M306 345L307 346L306 345z"/>
<path style="fill:#759ef2; stroke:none;" d="M402 345L403 346L402 345M221 346L222 347L221 346z"/>
<path style="fill:#c7c3ff; stroke:none;" d="M307 346L308 347L307 346M401 346L402 347L401 346z"/>
<path style="fill:#759ef2; stroke:none;" d="M498 346L499 347L498 346z"/>
<path style="fill:#c7c3ff; stroke:none;" d="M220 347L221 348L220 347z"/>
<path style="fill:#759ef2; stroke:none;" d="M309 347L310 348L309 347M399 347L400 348L399 347z"/>
<path style="fill:#c7c3ff; stroke:none;" d="M498 347L499 348L498 347z"/>
<path style="fill:#759ef2; stroke:none;" d="M218 348L219 349L218 348z"/>
<path style="fill:#c7c3ff; stroke:none;" d="M310 348L311 349L310 348z"/>
<path style="fill:#759ef2; stroke:none;" d="M311 348L312 349L311 348z"/>
<path style="fill:#c7c3ff; stroke:none;" d="M398 348L399 349L398 348M456 348L457 349L456 348M217 349L218 350L217 349M312 349L313 350L312 349M396 349L397 350L396 349z"/>
<path style="fill:#759ef2; stroke:none;" d="M497 349L498 350L497 349z"/>
<path style="fill:#c7c3ff; stroke:none;" d="M215 350L216 351L215 350M314 350L315 351L314 350z"/>
<path style="fill:#759ef2; stroke:none;" d="M394 350L395 351L394 350M457 350L458 351L457 350z"/>
<path style="fill:#c7c3ff; stroke:none;" d="M497 350L498 351L497 350M213 351L214 352L213 351z"/>
<path style="fill:#759ef2; stroke:none;" d="M316 351L317 352L316 351M392 351L393 352L392 351z"/>
<path style="fill:#c7c3ff; stroke:none;" d="M393 351L394 352L393 351z"/>
<path style="fill:#759ef2; stroke:none;" d="M136 352L137 353L136 352z"/>
<path style="fill:#c7c3ff; stroke:none;" d="M211 352L212 353L211 352M318 352L319 353L318 352z"/>
<path style="fill:#759ef2; stroke:none;" d="M390 352L391 353L390 352z"/>
<path style="fill:#c7c3ff; stroke:none;" d="M391 352L392 353L391 352z"/>
<path style="fill:#759ef2; stroke:none;" d="M458 352L459 353L458 352z"/>
<path style="fill:#c7c3ff; stroke:none;" d="M496 352L497 353L496 352M136 353L136 393L137 393C137 381.566 140.411 363.512 136 353M138 353L139 354L138 353M209 353L210 354L209 353M320 353L321 354L320 353z"/>
<path style="fill:#759ef2; stroke:none;" d="M388 353L389 354L388 353z"/>
<path style="fill:#c7c3ff; stroke:none;" d="M140 354L141 355L140 354M207 354L208 355L207 354M322 354L323 355L322 354z"/>
<path style="fill:#759ef2; stroke:none;" d="M323 354L324 355L323 354z"/>
<path style="fill:#c7c3ff; stroke:none;" d="M386 354L387 355L386 354M459 354L460 355L459 354M142 355L143 356L142 355z"/>
<path style="fill:#759ef2; stroke:none;" d="M143 355L144 356L143 355z"/>
<path style="fill:#c7c3ff; stroke:none;" d="M204 355L205 356L204 355M325 355L326 356L325 355z"/>
<path style="fill:#759ef2; stroke:none;" d="M383 355L384 356L383 355z"/>
<path style="fill:#c7c3ff; stroke:none;" d="M384 355L385 356L384 355z"/>
<path style="fill:#759ef2; stroke:none;" d="M460 355L461 356L460 355z"/>
<path style="fill:#c7c3ff; stroke:none;" d="M145 356L146 357L145 356z"/>
<path style="fill:#759ef2; stroke:none;" d="M146 356L147 357L146 356M201 356L202 357L201 356z"/>
<path style="fill:#c7c3ff; stroke:none;" d="M202 356L203 357L202 356M327.667 356.333L328.333 356.667L327.667 356.333z"/>
<path style="fill:#759ef2; stroke:none;" d="M380 356L381 357L380 356z"/>
<path style="fill:#c7c3ff; stroke:none;" d="M381 356L382 357L381 356M493 356L494 357L493 356M148 357L149 358L148 357z"/>
<path style="fill:#759ef2; stroke:none;" d="M149 357L150 358L149 357M198 357L199 358L198 357z"/>
<path style="fill:#c7c3ff; stroke:none;" d="M199 357L200 358L199 357M330.667 357.333L331.333 357.667L330.667 357.333z"/>
<path style="fill:#759ef2; stroke:none;" d="M332 357L333 358L332 357M377 357L378 358L377 357z"/>
<path style="fill:#c7c3ff; stroke:none;" d="M378 357L379 358L378 357M492 357L493 358L492 357M152 358L153 359L152 358z"/>
<path style="fill:#759ef2; stroke:none;" d="M153 358L154 359L153 358M194 358L195 359L194 358z"/>
<path style="fill:#c7c3ff; stroke:none;" d="M195 358L196 359L195 358M334.667 358.333L335.333 358.667L334.667 358.333z"/>
<path style="fill:#759ef2; stroke:none;" d="M336 358L337 359L336 358M373 358L374 359L373 358z"/>
<path style="fill:#c7c3ff; stroke:none;" d="M374 358L375 359L374 358z"/>
<path style="fill:#759ef2; stroke:none;" d="M463 358L464 359L463 358z"/>
<path style="fill:#c7c3ff; stroke:none;" d="M156.667 359.333L157.333 359.667L156.667 359.333z"/>
<path style="fill:#759ef2; stroke:none;" d="M158 359L159 360L158 359M189 359L190 360L189 359z"/>
<path style="fill:#c7c3ff; stroke:none;" d="M190.667 359.333L191.333 359.667L190.667 359.333M339.667 359.333L340.333 359.667L339.667 359.333z"/>
<path style="fill:#759ef2; stroke:none;" d="M341.667 359.333L342.333 359.667L341.667 359.333M367 359L368 360L367 359z"/>
<path style="fill:#c7c3ff; stroke:none;" d="M368 359L368 360L371 360L368 359M464 359L465 360L464 359M162 360L162 361L165 361L162 360z"/>
<path style="fill:#759ef2; stroke:none;" d="M165 360L165 361L168 361L165 360M180 360L180 361L184 361L180 360z"/>
<path style="fill:#c7c3ff; stroke:none;" d="M184.667 360.333L185.333 360.667L184.667 360.333M346 360L346 361L364 361L346 360z"/>
<path style="fill:#759ef2; stroke:none;" d="M466 360L467 361L466 360z"/>
<path style="fill:#c7c3ff; stroke:none;" d="M488 360L489 361L488 360z"/>
<path style="fill:#759ef2; stroke:none;" d="M468 361L469 362L468 361z"/>
<path style="fill:#c7c3ff; stroke:none;" d="M486 361L487 362L486 361M470 362L471 363L470 362z"/>
<path style="fill:#759ef2; stroke:none;" d="M471 362L472 363L471 362M482 362L483 363L482 362z"/>
<path style="fill:#c7c3ff; stroke:none;" d="M483 362L484 363L483 362M477 363L478 364L477 363z"/>
<path style="fill:#759ef2; stroke:none;" d="M135 396L136 397L135 396M92 397L93 398L92 397z"/>
<path style="fill:#c7c3ff; stroke:none;" d="M135.333 397.667L135.667 398.333L135.333 397.667M92 398L93 399L92 398z"/>
<path style="fill:#759ef2; stroke:none;" d="M93 400L94 401L93 400z"/>
<path style="fill:#c7c3ff; stroke:none;" d="M134 400L135 401L134 400M93 401L94 402L93 401z"/>
<path style="fill:#759ef2; stroke:none;" d="M94 402L95 403L94 402z"/>
<path style="fill:#c7c3ff; stroke:none;" d="M133 402L134 403L133 402M95 404L96 405L95 404z"/>
<path style="fill:#759ef2; stroke:none;" d="M96 405L97 406L96 405z"/>
<path style="fill:#c7c3ff; stroke:none;" d="M131 405L132 406L131 405z"/>
<path style="fill:#759ef2; stroke:none;" d="M97 406L98 407L97 406z"/>
<path style="fill:#c7c3ff; stroke:none;" d="M130 406L131 407L130 406z"/>
<path style="fill:#759ef2; stroke:none;" d="M98 407L99 408L98 407z"/>
<path style="fill:#c7c3ff; stroke:none;" d="M129 407L130 408L129 407M99 408L100 409L99 408M128 408L129 409L128 408M100 409L101 410L100 409M127 409L128 410L127 409z"/>
<path style="fill:#759ef2; stroke:none;" d="M102 410L103 411L102 410M125 410L126 411L125 410z"/>
<path style="fill:#c7c3ff; stroke:none;" d="M103 411L104 412L103 411z"/>
<path style="fill:#759ef2; stroke:none;" d="M104 411L105 412L104 411M123 411L124 412L123 411z"/>
<path style="fill:#c7c3ff; stroke:none;" d="M105.667 412.333L106.333 412.667L105.667 412.333z"/>
<path style="fill:#759ef2; stroke:none;" d="M120 412L121 413L120 412z"/>
<path style="fill:#c7c3ff; stroke:none;" d="M121 412L122 413L121 412M109 413L109 414L113 414L109 413z"/>
<path style="fill:#759ef2; stroke:none;" d="M113.667 413.333L114.333 413.667L113.667 413.333z"/>
<path style="fill:#c7c3ff; stroke:none;" d="M115 413L115 414L119 414L115 413z"/>
</svg>
