<svg width="45" height="45" viewBox="0 0 45 45" fill="none" xmlns="http://www.w3.org/2000/svg">
<rect opacity="0.23" width="45" height="45" rx="9" fill="#C4C4C4"/>
<path opacity="0.29" d="M22.7321 39.6889C29.4623 39.6889 34.8774 34.1667 34.8774 27.4C34.8774 20.6333 29.4623 15.1111 22.7321 15.1111C16.0019 15.1111 10.5095 20.6333 10.5095 27.4C10.5095 34.1667 16.0019 39.6889 22.7321 39.6889Z" fill="#622FCD" stroke="#622FCD" stroke-width="0.3" stroke-miterlimit="10"/>
<path d="M19.9472 12.2333C18.7868 10.2889 18.2453 8.11111 18.2453 5.85556C18.3227 5.62222 18.4 5.46667 18.5547 5.31111C18.6321 5.15556 18.8642 5.07778 19.0189 5H25.6717C25.6717 5 26.8321 5 26.6774 5.77778C26.5227 8.03333 25.9812 10.2111 25.2076 12.3111H19.9472V12.2333Z" fill="#300864"/>
<path d="M18.6321 16.5111C18.6321 16.5111 19.0962 13.9444 20.2566 14.0222H24.3566C24.3566 14.0222 25.5943 13.4778 26.0585 15.7333L29.3849 26.3889L30.3132 29.5C30.7 30.6667 30.7 31.9111 30.3132 33L24.666 38.3667C24.5113 38.6 24.2792 38.7556 23.9698 38.9111C23.7377 39.0667 23.4283 39.1444 23.1189 39.1444C22.8094 39.1444 22.5 39.1444 22.2679 39.0667C21.9585 38.9889 21.7264 38.8333 21.4943 38.6L15.3057 33.6222C14.6868 33.3111 14.3 32.7667 14.0679 32.1444C13.8358 31.5222 13.9132 30.8222 14.2226 30.2L18.6321 16.5111Z" fill="#300864"/>
<path opacity="0.33" d="M24.434 29.0333C24.9755 29.7333 25.5943 30.4333 26.1358 31.2111C26.6774 31.9889 27.4509 33 28.0698 33.8556C28.1472 34.0889 28.1472 34.4 28.0698 34.6333C27.9925 34.8667 27.8377 35.1 27.6057 35.2556C27.4509 35.2556 27.2962 35.2556 27.1415 35.2556C26.9868 35.2556 26.8321 35.1778 26.6774 35.1C26.5226 35.0222 26.4453 34.8667 26.3679 34.7889C26.2906 34.6333 26.2132 34.4778 26.2132 34.3222L25.9038 33.4667C25.3623 31.9889 24.8208 30.5889 24.434 29.0333Z" fill="white"/>
</svg>
